<svg width="1346" height="1446" viewBox="0 0 1346 1446" fill="none" xmlns="http://www.w3.org/2000/svg">
<rect width="1346" height="1445.18" fill="#112B48"/>
<path fill-rule="evenodd" clip-rule="evenodd" d="M609.025 766.607C642.894 781.373 697.454 783.732 734.659 764.125L834.776 1434.22L511.224 1437.05L609.025 766.607Z" fill="#020E25"/>
<path fill-rule="evenodd" clip-rule="evenodd" d="M752.007 827.539C798.552 805.691 845.913 735.268 834.174 680.01L1327.36 953.411C1380.44 990.538 1239.7 1108.02 1127.07 1035.18L752.007 827.539Z" fill="#1A6AFF" stroke="#020E25" stroke-miterlimit="22.9256"/>
<path fill-rule="evenodd" clip-rule="evenodd" d="M593.993 823.14C547.448 801.538 500.9 734.371 515.754 680.01L18.6353 947.59C-34.4426 984.297 106.302 1100.45 218.932 1028.43L593.993 823.14Z" fill="#1A6AFF" stroke="#020E25" stroke-miterlimit="22.9256"/>
<path fill-rule="evenodd" clip-rule="evenodd" d="M594.39 565.062C643.112 537.337 700.431 534.565 759.532 567.855L754.19 31.444C746.316 -29.7743 575.582 29.0153 587.019 156.071L594.39 565.062Z" fill="#1A6AFF" stroke="#020E25" stroke-miterlimit="22.9256"/>
<path fill-rule="evenodd" clip-rule="evenodd" d="M894.655 330.577C1041.39 406.328 1115.25 548.88 1120.71 681.786C1119.22 717.021 1084.27 717.483 1078.32 679.034C1066.43 543.829 1007.68 443.749 868.63 358.125C831.2 333.793 854.752 309.46 894.655 330.578V330.577Z" fill="white" stroke="#020E25" stroke-miterlimit="22.9256"/>
<path fill-rule="evenodd" clip-rule="evenodd" d="M452.591 330.577C309.933 406.328 238.12 548.88 232.819 681.786C234.267 717.021 268.241 717.483 274.025 679.034C285.592 543.829 342.703 443.749 477.893 358.125C514.283 333.793 491.386 309.46 452.591 330.578V330.577Z" fill="white" stroke="#020E25" stroke-miterlimit="22.9256"/>
<path d="M1346 1310.58H0V1445.18H1346V1310.58Z" fill="#020E25"/>
<path fill-rule="evenodd" clip-rule="evenodd" d="M897.677 1054.08C741.596 1125.71 562.008 1108.35 430.356 1044.45C397.108 1025.3 416.381 998.776 456.935 1013.97C594.447 1074.2 724.413 1081.21 885.71 1020.4C930.371 1004.69 940.623 1034.86 897.677 1054.08V1054.08Z" fill="white" stroke="#020E25" stroke-miterlimit="22.9256"/>
<path d="M834.276 694.029C834.276 778.9 762.093 847.741 673 847.741C583.907 847.741 511.724 778.9 511.724 694.029C511.724 609.158 583.907 540.317 673 540.317C762.093 540.317 834.276 609.158 834.276 694.029Z" fill="white" stroke="#020E25"/>
<path d="M673 820.203C749.88 820.203 812.203 762.144 812.203 690.524C812.203 618.905 749.88 560.846 673 560.846C596.121 560.846 533.798 618.905 533.798 690.524C533.798 762.144 596.121 820.203 673 820.203Z" fill="#020E25"/>
<path d="M168.241 1221.35V1190.93H311.594V1221.35H258.156V1365.47H221.679V1221.35H168.241ZM375.195 1368.03C361.729 1368.03 350.138 1365.3 340.422 1359.85C330.763 1354.34 323.32 1346.55 318.092 1336.5C312.865 1326.38 310.251 1314.42 310.251 1300.62C310.251 1287.15 312.865 1275.33 318.092 1265.16C323.32 1254.99 330.678 1247.06 340.166 1241.38C349.712 1235.7 360.905 1232.86 373.746 1232.86C382.382 1232.86 390.422 1234.25 397.865 1237.04C405.365 1239.76 411.899 1243.88 417.467 1249.39C423.092 1254.91 427.467 1261.84 430.592 1270.19C433.717 1278.48 435.28 1288.2 435.28 1299.34V1309.31H324.74V1286.81H401.104C401.104 1281.58 399.967 1276.95 397.695 1272.92C395.422 1268.88 392.268 1265.73 388.234 1263.46C384.257 1261.13 379.626 1259.96 374.342 1259.96C368.831 1259.96 363.945 1261.24 359.683 1263.8C355.479 1266.3 352.183 1269.68 349.797 1273.94C347.411 1278.14 346.189 1282.83 346.132 1288V1309.39C346.132 1315.87 347.325 1321.47 349.712 1326.18C352.155 1330.9 355.592 1334.54 360.024 1337.09C364.456 1339.65 369.712 1340.93 375.791 1340.93C379.825 1340.93 383.518 1340.36 386.871 1339.22C390.223 1338.09 393.092 1336.38 395.479 1334.11C397.865 1331.84 399.683 1329.05 400.933 1325.76L434.513 1327.97C432.808 1336.04 429.314 1343.09 424.03 1349.11C418.803 1355.08 412.041 1359.73 403.746 1363.09C395.507 1366.38 385.99 1368.03 375.195 1368.03ZM518.121 1368.03C504.712 1368.03 493.178 1365.19 483.518 1359.51C473.916 1353.77 466.53 1345.81 461.359 1335.64C456.246 1325.47 453.689 1313.77 453.689 1300.53C453.689 1287.12 456.274 1275.36 461.445 1265.25C466.672 1255.08 474.087 1247.15 483.689 1241.47C493.291 1235.73 504.712 1232.86 517.95 1232.86C529.371 1232.86 539.371 1234.93 547.95 1239.08C556.53 1243.23 563.32 1249.05 568.32 1256.55C573.32 1264.05 576.075 1272.86 576.587 1282.97H542.325C541.359 1276.44 538.803 1271.18 534.655 1267.21C530.564 1263.17 525.195 1261.16 518.547 1261.16C512.922 1261.16 508.007 1262.69 503.803 1265.76C499.655 1268.77 496.416 1273.17 494.087 1278.97C491.757 1284.76 490.592 1291.78 490.592 1300.02C490.592 1308.37 491.729 1315.47 494.001 1321.33C496.331 1327.18 499.598 1331.64 503.803 1334.71C508.007 1337.77 512.922 1339.31 518.547 1339.31C522.695 1339.31 526.416 1338.46 529.712 1336.75C533.064 1335.05 535.82 1332.58 537.979 1329.34C540.195 1326.04 541.643 1322.09 542.325 1317.49H576.587C576.018 1327.49 573.291 1336.3 568.405 1343.91C563.575 1351.47 556.899 1357.38 548.376 1361.64C539.854 1365.9 529.768 1368.03 518.121 1368.03ZM636.139 1289.79V1365.47H599.832V1190.93H635.116V1257.66H636.651C639.605 1249.93 644.378 1243.88 650.969 1239.51C657.56 1235.08 665.827 1232.86 675.77 1232.86C684.861 1232.86 692.787 1234.85 699.548 1238.83C706.366 1242.75 711.651 1248.4 715.401 1255.79C719.207 1263.12 721.082 1271.89 721.026 1282.12V1365.47H684.719V1288.6C684.776 1280.53 682.73 1274.25 678.582 1269.76C674.491 1265.27 668.753 1263.03 661.366 1263.03C656.423 1263.03 652.048 1264.08 648.241 1266.18C644.491 1268.29 641.537 1271.35 639.378 1275.39C637.276 1279.37 636.196 1284.17 636.139 1289.79Z" fill="white"/>
<path d="M748.405 1365.47V1343.57L835.507 1221.35H748.234V1190.93H881.871V1212.83L794.683 1335.05H882.041V1365.47H748.405ZM947.006 1367.95C938.653 1367.95 931.21 1366.5 924.676 1363.6C918.142 1360.64 912.972 1356.3 909.165 1350.56C905.415 1344.76 903.54 1337.55 903.54 1328.91C903.54 1321.64 904.875 1315.53 907.545 1310.59C910.216 1305.64 913.852 1301.67 918.455 1298.66C923.057 1295.64 928.284 1293.37 934.136 1291.84C940.045 1290.3 946.239 1289.22 952.716 1288.6C960.33 1287.8 966.466 1287.06 971.125 1286.38C975.784 1285.64 979.165 1284.56 981.267 1283.14C983.369 1281.72 984.42 1279.62 984.42 1276.84V1276.33C984.42 1270.93 982.716 1266.75 979.307 1263.8C975.955 1260.84 971.182 1259.37 964.989 1259.37C958.455 1259.37 953.256 1260.81 949.392 1263.71C945.528 1266.55 942.972 1270.13 941.722 1274.45L908.142 1271.72C909.847 1263.77 913.199 1256.89 918.199 1251.1C923.199 1245.25 929.648 1240.76 937.545 1237.63C945.5 1234.45 954.705 1232.86 965.159 1232.86C972.432 1232.86 979.392 1233.71 986.04 1235.42C992.744 1237.12 998.682 1239.76 1003.85 1243.34C1009.08 1246.92 1013.2 1251.52 1016.21 1257.15C1019.22 1262.72 1020.73 1269.39 1020.73 1277.18V1365.47H986.295V1347.32H985.273C983.17 1351.41 980.358 1355.02 976.835 1358.14C973.312 1361.21 969.08 1363.63 964.136 1365.39C959.193 1367.09 953.483 1367.95 947.006 1367.95ZM957.403 1342.89C962.744 1342.89 967.46 1341.84 971.551 1339.73C975.642 1337.58 978.852 1334.68 981.182 1331.04C983.511 1327.41 984.676 1323.29 984.676 1318.68V1304.79C983.54 1305.53 981.977 1306.21 979.989 1306.84C978.057 1307.41 975.869 1307.95 973.426 1308.46C970.983 1308.91 968.54 1309.34 966.097 1309.73C963.653 1310.08 961.438 1310.39 959.449 1310.67C955.188 1311.3 951.466 1312.29 948.284 1313.66C945.102 1315.02 942.631 1316.87 940.869 1319.2C939.108 1321.47 938.227 1324.31 938.227 1327.72C938.227 1332.66 940.017 1336.44 943.597 1339.05C947.233 1341.61 951.835 1342.89 957.403 1342.89ZM1048.89 1414.56V1234.56H1084.69V1256.55H1086.31C1087.9 1253.03 1090.2 1249.45 1093.21 1245.81C1096.28 1242.12 1100.26 1239.05 1105.14 1236.61C1110.09 1234.11 1116.22 1232.86 1123.55 1232.86C1133.1 1232.86 1141.91 1235.36 1149.97 1240.36C1158.04 1245.3 1164.49 1252.77 1169.32 1262.77C1174.15 1272.72 1176.57 1285.19 1176.57 1300.19C1176.57 1314.79 1174.21 1327.12 1169.49 1337.18C1164.83 1347.18 1158.47 1354.76 1150.4 1359.93C1142.39 1365.05 1133.41 1367.6 1123.47 1367.6C1116.42 1367.6 1110.43 1366.44 1105.49 1364.11C1100.6 1361.78 1096.59 1358.85 1093.47 1355.33C1090.34 1351.75 1087.96 1348.14 1086.31 1344.51H1085.2V1414.56H1048.89ZM1084.43 1300.02C1084.43 1307.8 1085.51 1314.59 1087.67 1320.39C1089.83 1326.18 1092.96 1330.7 1097.05 1333.94C1101.14 1337.12 1106.11 1338.71 1111.96 1338.71C1117.87 1338.71 1122.87 1337.09 1126.96 1333.85C1131.05 1330.56 1134.15 1326.01 1136.25 1320.22C1138.41 1314.37 1139.49 1307.63 1139.49 1300.02C1139.49 1292.46 1138.44 1285.81 1136.34 1280.08C1134.24 1274.34 1131.14 1269.85 1127.05 1266.61C1122.96 1263.37 1117.93 1261.75 1111.96 1261.75C1106.05 1261.75 1101.05 1263.31 1096.96 1266.44C1092.93 1269.56 1089.83 1274 1087.67 1279.73C1085.51 1285.47 1084.43 1292.23 1084.43 1300.02Z" fill="#1A6AFF"/>
</svg>
