<svg width="180" height="58" viewBox="0 0 180 58" fill="none" xmlns="http://www.w3.org/2000/svg">
<g clip-path="url(#clip0_68_148)">
<path d="M51.4855 19.4851V15.6818H69.4045V19.4851H62.7249V37.5H58.1652V19.4851H51.4855ZM77.3546 37.8196C75.6714 37.8196 74.2225 37.4787 73.0081 36.7969C71.8007 36.108 70.8703 35.1349 70.2169 33.8778C69.5635 32.6136 69.2367 31.1186 69.2367 29.3928C69.2367 27.7095 69.5635 26.2322 70.2169 24.9609C70.8703 23.6896 71.79 22.6989 72.9761 21.9886C74.1693 21.2784 75.5684 20.9233 77.1735 20.9233C78.2531 20.9233 79.2581 21.0973 80.1885 21.4453C81.126 21.7862 81.9427 22.3011 82.6387 22.9901C83.3419 23.679 83.8887 24.5455 84.2794 25.5895C84.67 26.6264 84.8653 27.8409 84.8653 29.233V30.4794H71.0478V27.6669H80.5933C80.5933 27.0135 80.4512 26.4347 80.1671 25.9304C79.8831 25.4261 79.4889 25.032 78.9846 24.7479C78.4875 24.4567 77.9086 24.3111 77.2481 24.3111C76.5592 24.3111 75.9484 24.4709 75.4157 24.7905C74.8902 25.103 74.4782 25.5256 74.1799 26.0582C73.8816 26.5838 73.7289 27.1697 73.7218 27.8161V30.4901C73.7218 31.2997 73.871 31.9993 74.1693 32.5888C74.4747 33.1783 74.9044 33.6328 75.4583 33.9524C76.0123 34.272 76.6693 34.4318 77.4292 34.4318C77.9335 34.4318 78.3951 34.3608 78.8142 34.2188C79.2332 34.0767 79.5919 33.8636 79.8902 33.5795C80.1885 33.2955 80.4157 32.9474 80.572 32.5355L84.7694 32.8125C84.5564 33.821 84.1196 34.7017 83.4591 35.4545C82.8056 36.2003 81.9605 36.7827 80.9235 37.2017C79.8937 37.6136 78.7041 37.8196 77.3546 37.8196ZM95.2204 37.8196C93.5443 37.8196 92.1025 37.4645 90.8951 36.7543C89.6948 36.0369 88.7716 35.0426 88.1252 33.7713C87.486 32.5 87.1664 31.0369 87.1664 29.3821C87.1664 27.706 87.4896 26.2358 88.1359 24.9716C88.7893 23.7003 89.7162 22.7095 90.9164 21.9993C92.1167 21.282 93.5443 20.9233 95.1991 20.9233C96.6267 20.9233 97.8767 21.1825 98.9491 21.701C100.022 22.2195 100.87 22.9474 101.495 23.8849C102.12 24.8224 102.465 25.9233 102.529 27.1875H98.246C98.1252 26.3707 97.8056 25.7138 97.2872 25.2166C96.7758 24.7124 96.1046 24.4602 95.2737 24.4602C94.5706 24.4602 93.9562 24.652 93.4306 25.0355C92.9122 25.4119 92.5073 25.9624 92.2162 26.6868C91.925 27.4112 91.7794 28.2884 91.7794 29.3182C91.7794 30.3622 91.9214 31.25 92.2055 31.9815C92.4967 32.7131 92.9051 33.2706 93.4306 33.6541C93.9562 34.0376 94.5706 34.2294 95.2737 34.2294C95.7921 34.2294 96.2573 34.1229 96.6693 33.9098C97.0883 33.6967 97.4328 33.3878 97.7027 32.983C97.9796 32.571 98.1608 32.0774 98.246 31.5021H102.529C102.458 32.7521 102.117 33.853 101.506 34.8047C100.902 35.7493 100.068 36.4879 99.0024 37.0206C97.937 37.5533 96.6764 37.8196 95.2204 37.8196ZM109.973 28.0398V37.5H105.434V15.6818H109.845V24.0234H110.037C110.406 23.0575 111.003 22.3011 111.826 21.7543C112.65 21.2003 113.684 20.9233 114.927 20.9233C116.063 20.9233 117.054 21.1719 117.899 21.669C118.751 22.1591 119.412 22.8658 119.88 23.7891C120.356 24.7053 120.591 25.8026 120.584 27.081V37.5H116.045V27.8906C116.052 26.8821 115.797 26.0973 115.278 25.5362C114.767 24.9751 114.049 24.6946 113.126 24.6946C112.508 24.6946 111.961 24.826 111.486 25.0888C111.017 25.3516 110.647 25.7351 110.378 26.2393C110.115 26.7365 109.98 27.3366 109.973 28.0398Z" fill="white"/>
<path d="M124.006 37.5V34.7621L134.894 19.4851H123.985V15.6818H140.689V18.4197L129.791 33.6967H140.71V37.5H124.006ZM148.831 37.8089C147.787 37.8089 146.857 37.6278 146.04 37.2656C145.223 36.8963 144.577 36.353 144.101 35.6357C143.632 34.9112 143.398 34.0092 143.398 32.9297C143.398 32.0206 143.565 31.2571 143.899 30.6392C144.232 30.0213 144.687 29.5241 145.262 29.1477C145.837 28.7713 146.491 28.4872 147.222 28.2955C147.961 28.1037 148.735 27.9688 149.545 27.8906C150.497 27.7912 151.264 27.6989 151.846 27.6136C152.428 27.5213 152.851 27.3864 153.114 27.2088C153.376 27.0312 153.508 26.7685 153.508 26.4205V26.3565C153.508 25.6818 153.295 25.1598 152.869 24.7905C152.45 24.4212 151.853 24.2365 151.079 24.2365C150.262 24.2365 149.612 24.4176 149.129 24.7798C148.646 25.1349 148.327 25.5824 148.171 26.1222L143.973 25.7812C144.186 24.7869 144.605 23.9276 145.23 23.2031C145.855 22.4716 146.661 21.9105 147.649 21.5199C148.643 21.1222 149.793 20.9233 151.1 20.9233C152.009 20.9233 152.879 21.0298 153.71 21.2429C154.548 21.456 155.291 21.7862 155.937 22.2337C156.59 22.6811 157.105 23.2564 157.482 23.9595C157.858 24.6555 158.046 25.4901 158.046 26.4631V37.5H153.742V35.2308H153.614C153.352 35.7422 153 36.1932 152.56 36.5838C152.119 36.9673 151.59 37.2692 150.972 37.4893C150.354 37.7024 149.641 37.8089 148.831 37.8089ZM150.131 34.6768C150.798 34.6768 151.388 34.5455 151.899 34.2827C152.411 34.0128 152.812 33.6506 153.103 33.196C153.394 32.7415 153.54 32.2266 153.54 31.6513V29.9148C153.398 30.0071 153.202 30.0923 152.954 30.1705C152.712 30.2415 152.439 30.3089 152.134 30.3729C151.828 30.4297 151.523 30.483 151.217 30.5327C150.912 30.5753 150.635 30.6143 150.386 30.6499C149.854 30.728 149.389 30.8523 148.991 31.0227C148.593 31.1932 148.284 31.424 148.064 31.7152C147.844 31.9993 147.734 32.3544 147.734 32.7805C147.734 33.3984 147.957 33.8707 148.405 34.1974C148.859 34.517 149.435 34.6768 150.131 34.6768ZM161.567 43.6364V21.1364H166.042V23.8849H166.244C166.443 23.4446 166.731 22.9972 167.107 22.5426C167.49 22.081 167.988 21.6974 168.598 21.392C169.216 21.0795 169.983 20.9233 170.9 20.9233C172.093 20.9233 173.194 21.2358 174.202 21.8608C175.211 22.4787 176.017 23.4126 176.62 24.6626C177.224 25.9055 177.526 27.4645 177.526 29.3395C177.526 31.1648 177.231 32.706 176.642 33.9631C176.059 35.2131 175.264 36.1612 174.255 36.8075C173.254 37.4467 172.132 37.7663 170.889 37.7663C170.008 37.7663 169.259 37.6207 168.641 37.3295C168.03 37.0384 167.53 36.6726 167.139 36.2322C166.748 35.7848 166.45 35.3338 166.244 34.8793H166.106V43.6364H161.567ZM166.01 29.3182C166.01 30.2912 166.145 31.1399 166.414 31.8643C166.684 32.5888 167.075 33.1534 167.586 33.5582C168.098 33.956 168.719 34.1548 169.451 34.1548C170.189 34.1548 170.814 33.9524 171.326 33.5476C171.837 33.1357 172.224 32.5675 172.487 31.843C172.757 31.1115 172.892 30.2699 172.892 29.3182C172.892 28.3736 172.76 27.5426 172.498 26.8253C172.235 26.108 171.848 25.5469 171.336 25.142C170.825 24.7372 170.196 24.5348 169.451 24.5348C168.712 24.5348 168.087 24.7301 167.576 25.1207C167.071 25.5114 166.684 26.0653 166.414 26.7827C166.145 27.5 166.01 28.3452 166.01 29.3182Z" fill="#020E25"/>
<path fill-rule="evenodd" clip-rule="evenodd" d="M20.481 30.9513C21.7415 31.5338 23.7722 31.6269 25.157 30.8534L28.8833 57.29L16.8408 57.4019L20.481 30.9513Z" fill="#020E25"/>
<path fill-rule="evenodd" clip-rule="evenodd" d="M25.3064 30.7006C26.8825 29.9236 28.4862 27.4191 28.0887 25.4539L44.789 35.1771C46.5864 36.4975 41.8205 40.6756 38.0066 38.0851L25.3064 30.7006Z" fill="#1A6AFF" stroke="#020E25" stroke-width="0.755976" stroke-miterlimit="22.9256"/>
<path fill-rule="evenodd" clip-rule="evenodd" d="M20.1294 30.6323C18.5664 29.8709 17.0032 27.5035 17.5021 25.5874L0.808068 35.0188C-0.974368 36.3126 3.75207 40.4067 7.53435 37.8684L20.1294 30.6323Z" fill="#1A6AFF" stroke="#020E25" stroke-width="0.755976" stroke-miterlimit="22.9256"/>
<path fill-rule="evenodd" clip-rule="evenodd" d="M20.0208 21.2755C21.7101 20.2929 23.6975 20.1946 25.7466 21.3745L25.5614 2.36334C25.2884 0.193685 19.3687 2.27727 19.7653 6.78029L20.0208 21.2755Z" fill="#1A6AFF" stroke="#020E25" stroke-width="0.755976" stroke-miterlimit="22.9256"/>
<path fill-rule="evenodd" clip-rule="evenodd" d="M30.2763 12.9881C35.1785 15.6903 37.6462 20.7754 37.8283 25.5164C37.7786 26.7733 36.6111 26.7898 36.4124 25.4182C36.0149 20.5952 34.0524 17.0252 29.4068 13.9708C28.1563 13.1028 28.9432 12.2348 30.2763 12.9881Z" fill="white" stroke="#020E25" stroke-width="0.5" stroke-miterlimit="22.9256"/>
<path fill-rule="evenodd" clip-rule="evenodd" d="M15.3636 12.9881C10.4614 15.6903 7.99367 20.7754 7.81152 25.5164C7.86126 26.7733 9.02873 26.7898 9.22747 25.4182C9.62496 20.5952 11.5875 17.0252 16.233 13.9708C17.4835 13.1028 16.6967 12.2348 15.3636 12.9881Z" fill="white" stroke="#020E25" stroke-width="0.5" stroke-miterlimit="22.9256"/>
<path d="M44.3514 53.5696H1.52344V57.5H44.3514V53.5696Z" fill="#020E25"/>
<path fill-rule="evenodd" clip-rule="evenodd" d="M30.4177 38.8101C25.1458 41.4718 19.0799 40.8266 14.6331 38.4524C13.51 37.7409 14.161 36.7553 15.5308 37.3199C20.1755 39.5576 24.5654 39.8182 30.0135 37.5589C31.522 36.9752 31.8683 38.0961 30.4177 38.8101Z" fill="white" stroke="#020E25" stroke-width="0.5" stroke-miterlimit="22.9256"/>
<path d="M27.8249 25.9751C27.8249 28.781 25.5655 31.0502 22.7851 31.0502C20.0047 31.0502 17.7454 28.781 17.7454 25.9751C17.7454 23.1691 20.0047 20.8999 22.7851 20.8999C25.5655 20.8999 27.8249 23.1691 27.8249 25.9751Z" fill="white" stroke="#020E25"/>
<path d="M22.7852 30.5763C25.3636 30.5763 27.4538 28.4976 27.4538 25.9334C27.4538 23.3693 25.3636 21.2906 22.7852 21.2906C20.2068 21.2906 18.1166 23.3693 18.1166 25.9334C18.1166 28.4976 20.2068 30.5763 22.7852 30.5763Z" fill="#020E25" stroke="white" stroke-width="0.75" stroke-miterlimit="22.9256"/>
</g>
<defs>
<clipPath id="clip0_68_148">
<rect width="180" height="57" fill="white" transform="translate(0 0.5)"/>
</clipPath>
</defs>
</svg>
