<svg width="180" height="57" viewBox="0 0 180 57" fill="none" xmlns="http://www.w3.org/2000/svg">
<path d="M51.4855 18.9851V15.1818H69.4045V18.9851H62.7249V37H58.1652V18.9851H51.4855ZM77.3546 37.3196C75.6714 37.3196 74.2225 36.9787 73.0081 36.2969C71.8007 35.608 70.8703 34.6349 70.2169 33.3778C69.5635 32.1136 69.2367 30.6186 69.2367 28.8928C69.2367 27.2095 69.5635 25.7322 70.2169 24.4609C70.8703 23.1896 71.79 22.1989 72.9761 21.4886C74.1693 20.7784 75.5684 20.4233 77.1735 20.4233C78.2531 20.4233 79.2581 20.5973 80.1885 20.9453C81.126 21.2862 81.9427 21.8011 82.6387 22.4901C83.3419 23.179 83.8887 24.0455 84.2794 25.0895C84.67 26.1264 84.8653 27.3409 84.8653 28.733V29.9794H71.0478V27.1669H80.5933C80.5933 26.5135 80.4512 25.9347 80.1671 25.4304C79.8831 24.9261 79.4889 24.532 78.9846 24.2479C78.4875 23.9567 77.9086 23.8111 77.2481 23.8111C76.5592 23.8111 75.9484 23.9709 75.4157 24.2905C74.8902 24.603 74.4782 25.0256 74.1799 25.5582C73.8816 26.0838 73.7289 26.6697 73.7218 27.3161V29.9901C73.7218 30.7997 73.871 31.4993 74.1693 32.0888C74.4747 32.6783 74.9044 33.1328 75.4583 33.4524C76.0123 33.772 76.6693 33.9318 77.4292 33.9318C77.9335 33.9318 78.3951 33.8608 78.8142 33.7188C79.2332 33.5767 79.5919 33.3636 79.8902 33.0795C80.1885 32.7955 80.4157 32.4474 80.572 32.0355L84.7694 32.3125C84.5564 33.321 84.1196 34.2017 83.4591 34.9545C82.8056 35.7003 81.9605 36.2827 80.9235 36.7017C79.8937 37.1136 78.7041 37.3196 77.3546 37.3196ZM95.2204 37.3196C93.5443 37.3196 92.1025 36.9645 90.8951 36.2543C89.6948 35.5369 88.7716 34.5426 88.1252 33.2713C87.486 32 87.1664 30.5369 87.1664 28.8821C87.1664 27.206 87.4896 25.7358 88.1359 24.4716C88.7893 23.2003 89.7162 22.2095 90.9164 21.4993C92.1167 20.782 93.5443 20.4233 95.1991 20.4233C96.6267 20.4233 97.8767 20.6825 98.9491 21.201C100.022 21.7195 100.87 22.4474 101.495 23.3849C102.12 24.3224 102.465 25.4233 102.529 26.6875H98.246C98.1252 25.8707 97.8056 25.2138 97.2872 24.7166C96.7758 24.2124 96.1046 23.9602 95.2737 23.9602C94.5706 23.9602 93.9562 24.152 93.4306 24.5355C92.9122 24.9119 92.5073 25.4624 92.2162 26.1868C91.925 26.9112 91.7794 27.7884 91.7794 28.8182C91.7794 29.8622 91.9214 30.75 92.2055 31.4815C92.4967 32.2131 92.9051 32.7706 93.4306 33.1541C93.9562 33.5376 94.5706 33.7294 95.2737 33.7294C95.7921 33.7294 96.2573 33.6229 96.6693 33.4098C97.0883 33.1967 97.4328 32.8878 97.7027 32.483C97.9796 32.071 98.1608 31.5774 98.246 31.0021H102.529C102.458 32.2521 102.117 33.353 101.506 34.3047C100.902 35.2493 100.068 35.9879 99.0024 36.5206C97.937 37.0533 96.6764 37.3196 95.2204 37.3196ZM109.973 27.5398V37H105.434V15.1818H109.845V23.5234H110.037C110.406 22.5575 111.003 21.8011 111.826 21.2543C112.65 20.7003 113.684 20.4233 114.927 20.4233C116.063 20.4233 117.054 20.6719 117.899 21.169C118.751 21.6591 119.412 22.3658 119.88 23.2891C120.356 24.2053 120.591 25.3026 120.584 26.581V37H116.045V27.3906C116.052 26.3821 115.797 25.5973 115.278 25.0362C114.767 24.4751 114.049 24.1946 113.126 24.1946C112.508 24.1946 111.961 24.326 111.486 24.5888C111.017 24.8516 110.647 25.2351 110.378 25.7393C110.115 26.2365 109.98 26.8366 109.973 27.5398Z" fill="white"/>
<path d="M124.006 37V34.2621L134.894 18.9851H123.985V15.1818H140.689V17.9197L129.791 33.1967H140.71V37H124.006ZM148.831 37.3089C147.787 37.3089 146.857 37.1278 146.04 36.7656C145.223 36.3963 144.577 35.853 144.101 35.1357C143.632 34.4112 143.398 33.5092 143.398 32.4297C143.398 31.5206 143.565 30.7571 143.899 30.1392C144.232 29.5213 144.687 29.0241 145.262 28.6477C145.837 28.2713 146.491 27.9872 147.222 27.7955C147.961 27.6037 148.735 27.4688 149.545 27.3906C150.497 27.2912 151.264 27.1989 151.846 27.1136C152.428 27.0213 152.851 26.8864 153.114 26.7088C153.376 26.5312 153.508 26.2685 153.508 25.9205V25.8565C153.508 25.1818 153.295 24.6598 152.869 24.2905C152.45 23.9212 151.853 23.7365 151.079 23.7365C150.262 23.7365 149.612 23.9176 149.129 24.2798C148.646 24.6349 148.327 25.0824 148.171 25.6222L143.973 25.2812C144.186 24.2869 144.605 23.4276 145.23 22.7031C145.855 21.9716 146.661 21.4105 147.649 21.0199C148.643 20.6222 149.793 20.4233 151.1 20.4233C152.009 20.4233 152.879 20.5298 153.71 20.7429C154.548 20.956 155.291 21.2862 155.937 21.7337C156.59 22.1811 157.105 22.7564 157.482 23.4595C157.858 24.1555 158.046 24.9901 158.046 25.9631V37H153.742V34.7308H153.614C153.352 35.2422 153 35.6932 152.56 36.0838C152.119 36.4673 151.59 36.7692 150.972 36.9893C150.354 37.2024 149.641 37.3089 148.831 37.3089ZM150.131 34.1768C150.798 34.1768 151.388 34.0455 151.899 33.7827C152.411 33.5128 152.812 33.1506 153.103 32.696C153.394 32.2415 153.54 31.7266 153.54 31.1513V29.4148C153.398 29.5071 153.202 29.5923 152.954 29.6705C152.712 29.7415 152.439 29.8089 152.134 29.8729C151.828 29.9297 151.523 29.983 151.217 30.0327C150.912 30.0753 150.635 30.1143 150.386 30.1499C149.854 30.228 149.389 30.3523 148.991 30.5227C148.593 30.6932 148.284 30.924 148.064 31.2152C147.844 31.4993 147.734 31.8544 147.734 32.2805C147.734 32.8984 147.957 33.3707 148.405 33.6974C148.859 34.017 149.435 34.1768 150.131 34.1768ZM161.567 43.1364V20.6364H166.042V23.3849H166.244C166.443 22.9446 166.731 22.4972 167.107 22.0426C167.49 21.581 167.988 21.1974 168.598 20.892C169.216 20.5795 169.983 20.4233 170.9 20.4233C172.093 20.4233 173.194 20.7358 174.202 21.3608C175.211 21.9787 176.017 22.9126 176.62 24.1626C177.224 25.4055 177.526 26.9645 177.526 28.8395C177.526 30.6648 177.231 32.206 176.642 33.4631C176.059 34.7131 175.264 35.6612 174.255 36.3075C173.254 36.9467 172.132 37.2663 170.889 37.2663C170.008 37.2663 169.259 37.1207 168.641 36.8295C168.03 36.5384 167.53 36.1726 167.139 35.7322C166.748 35.2848 166.45 34.8338 166.244 34.3793H166.106V43.1364H161.567ZM166.01 28.8182C166.01 29.7912 166.145 30.6399 166.414 31.3643C166.684 32.0888 167.075 32.6534 167.586 33.0582C168.098 33.456 168.719 33.6548 169.451 33.6548C170.189 33.6548 170.814 33.4524 171.326 33.0476C171.837 32.6357 172.224 32.0675 172.487 31.343C172.757 30.6115 172.892 29.7699 172.892 28.8182C172.892 27.8736 172.76 27.0426 172.498 26.3253C172.235 25.608 171.848 25.0469 171.336 24.642C170.825 24.2372 170.196 24.0348 169.451 24.0348C168.712 24.0348 168.087 24.2301 167.576 24.6207C167.071 25.0114 166.684 25.5653 166.414 26.2827C166.145 27 166.01 27.8452 166.01 28.8182Z" fill="#0353AF"/>
<path fill-rule="evenodd" clip-rule="evenodd" d="M20.481 30.4513C21.7415 31.0338 23.7722 31.1269 25.157 30.3534L28.8833 56.79L16.8408 56.9019L20.481 30.4513Z" fill="#020E25"/>
<path fill-rule="evenodd" clip-rule="evenodd" d="M25.3064 30.2006C26.8825 29.4236 28.4862 26.9191 28.0887 24.9539L44.789 34.6771C46.5864 35.9975 41.8205 40.1756 38.0066 37.5851L25.3064 30.2006Z" fill="#1A6AFF" stroke="#020E25" stroke-width="0.755976" stroke-miterlimit="22.9256"/>
<path fill-rule="evenodd" clip-rule="evenodd" d="M20.1294 30.1323C18.5664 29.3709 17.0032 27.0035 17.5021 25.0874L0.808069 34.5188C-0.974368 35.8126 3.75207 39.9067 7.53435 37.3684L20.1294 30.1323Z" fill="#1A6AFF" stroke="#020E25" stroke-width="0.755976" stroke-miterlimit="22.9256"/>
<path fill-rule="evenodd" clip-rule="evenodd" d="M20.0208 20.7755C21.7101 19.7929 23.6975 19.6946 25.7466 20.8745L25.5614 1.86334C25.2884 -0.306316 19.3687 1.77727 19.7653 6.28029L20.0208 20.7755Z" fill="#1A6AFF" stroke="#020E25" stroke-width="0.755976" stroke-miterlimit="22.9256"/>
<path fill-rule="evenodd" clip-rule="evenodd" d="M30.2763 12.4881C35.1785 15.1903 37.6462 20.2754 37.8283 25.0164C37.7786 26.2733 36.6111 26.2898 36.4124 24.9182C36.0149 20.0952 34.0524 16.5252 29.4068 13.4708C28.1563 12.6028 28.9432 11.7349 30.2763 12.4882V12.4881Z" fill="white" stroke="#020E25" stroke-width="0.5" stroke-miterlimit="22.9256"/>
<path fill-rule="evenodd" clip-rule="evenodd" d="M15.3636 12.4881C10.4614 15.1903 7.99367 20.2754 7.81152 25.0164C7.86126 26.2733 9.02873 26.2898 9.22747 24.9182C9.62496 20.0952 11.5875 16.5252 16.233 13.4708C17.4835 12.6028 16.6967 11.7349 15.3636 12.4882V12.4881Z" fill="white" stroke="#020E25" stroke-width="0.5" stroke-miterlimit="22.9256"/>
<path d="M44.3514 53.0696H1.52344V57H44.3514V53.0696Z" fill="#020E25"/>
<path fill-rule="evenodd" clip-rule="evenodd" d="M30.4177 38.3101C25.1458 40.9718 19.0799 40.3266 14.6331 37.9524C13.51 37.2409 14.161 36.2553 15.5308 36.8199C20.1755 39.0576 24.5654 39.3182 30.0135 37.0589C31.522 36.4752 31.8683 37.5961 30.4177 38.3101V38.3101Z" fill="white" stroke="#020E25" stroke-width="0.5" stroke-miterlimit="22.9256"/>
<path d="M27.8249 25.4751C27.8249 28.281 25.5655 30.5502 22.7851 30.5502C20.0047 30.5502 17.7454 28.281 17.7454 25.4751C17.7454 22.6691 20.0047 20.3999 22.7851 20.3999C25.5655 20.3999 27.8249 22.6691 27.8249 25.4751Z" fill="white" stroke="#020E25"/>
<path d="M22.7852 30.0763C25.3636 30.0763 27.4538 27.9976 27.4538 25.4334C27.4538 22.8693 25.3636 20.7906 22.7852 20.7906C20.2068 20.7906 18.1166 22.8693 18.1166 25.4334C18.1166 27.9976 20.2068 30.0763 22.7852 30.0763Z" fill="#020E25" stroke="white" stroke-width="0.75" stroke-miterlimit="22.9256"/>
</svg>
